PathFileType	4	(X/Y/Z)	16_2_6_p0_0-222_filt_butterworth.trc
DataRate	CameraRate	NumFrames	NumMarkers	Units	OrigDataRate	OrigDataStartFrame	OrigNumFrames
60.0	60.0	6	27	m	60.0	166	222
Frame#	Time	RHip			RKnee			RAnkle			RBigToe			RSmallToe			RHeel			LHip			LKnee			LAnkle			LBigToe			LSmallToe			LHeel			Neck			Head			Nose			RShoulder			RElbow			RWrist			RThumb			RIndex			RPinky			LShoulder			LElbow			LWrist			LThumb			LIndex			LPinky			
		X1	Y1	Z1	X2	Y2	Z2	X3	Y3	Z3	X4	Y4	Z4	X5	Y5	Z5	X6	Y6	Z6	X7	Y7	Z7	X8	Y8	Z8	X9	Y9	Z9	X10	Y10	Z10	X11	Y11	Z11	X12	Y12	Z12	X13	Y13	Z13	X14	Y14	Z14	X15	Y15	Z15	X16	Y16	Z16	X17	Y17	Z17	X18	Y18	Z18	X19	Y19	Z19	X20	Y20	Z20	X21	Y21	Z21	X22	Y22	Z22	X23	Y23	Z23	X24	Y24	Z24	X25	Y25	Z25	X26	Y26	Z26	X27	Y27	Z27	
166	2.7666666666666666	0.275439688541352	0.43740536548288683	0.5142452770645107	0.2912482222503206	0.6107238803140651	0.9343055062657595	0.292652650642501	0.6824067717272982	1.3520699170917279	0.23463399858799602	0.5003434535444837	1.3986045945803482	0.31556492653246093	0.5181983836689776	1.3948652023633177	0.25893590165578995	0.7953000802753925	1.4322184439578725	0.03903036851265463	0.4533668665267076	0.503438816647677	0.05191800657363826	0.6083083110570734	0.9198383115822539	0.07045799899828856	0.6652322104938682	1.327452515117039	0.07064697615807962	0.48943453337903764	1.3764884184393709	0.01628886207566626	0.5357734314106232	1.3802924746040672	0.09573309038168051	0.7533782685026387	1.4007405397986012	0.15204951579172896	0.3490414888150837	-0.07286217053746333	0.14821754090479336	0.29448781022935067	-0.31865477789577973	0.14333170521924943	0.21824507776839688	-0.19662532956241024	0.33562414881422076	0.3317041467196146	0.03244631637762775	0.35951699683942007	0.3392557265946182	0.3198097497211464	0.2504936558252473	0.2569365608095643	0.5583903413793899	0.14965003249362338	0.19192617904837742	0.6366686115443078	0.15500404387789346	0.20936466035485307	0.6589857451593455	0.19980652331115584	0.26625183463333146	0.692628090154001	-0.010724381094620174	0.38146453980685385	0.018165273417957307	-0.05630562521258987	0.36824783266018213	0.30144042132011073	0.062781819848231	0.26602635312818745	0.5265850498227778	0.1462453204069965	0.17040497891533188	0.5805384135314908	0.14128590838749283	0.16801807054574663	0.6072253731201279	0.08982906637646271	0.22280090384015122	0.628252836287889
167	2.783333333333333	0.27597124600275064	0.44782943039178963	0.5159045121752336	0.29059105229388804	0.610018070569338	0.9340004253271628	0.2925235221076332	0.6824394761292327	1.3527758800461478	0.23428322668254623	0.5025055023631478	1.3997097255484279	0.31534493064517854	0.5186830337459047	1.394624884258298	0.2574216875417942	0.794986817180192	1.436694517190529	0.04093424757690632	0.4605121372414507	0.5069731722987865	0.05129292050768915	0.6050515861593717	0.9186243887956405	0.07028120839086308	0.6651251326579011	1.3265514980013482	0.07220959638554504	0.4937345387215545	1.3775274609227361	0.016260474075602337	0.5357729539917617	1.3804197607091557	0.09657427877895436	0.7570382617557384	1.4007721210814583	0.15214100830794697	0.349154084599657	-0.07284538241867973	0.1480705264523321	0.2946472482607015	-0.3185177374856802	0.1433916665867151	0.2181495787453242	-0.19465242848234865	0.33560599091550203	0.3318165428710354	0.032418601541507816	0.359384919315294	0.3389515578879959	0.318701101339074	0.2381146959005297	0.2630995477809461	0.5512906312079389	0.1455268359699037	0.20441782415019366	0.6294172841363989	0.14908837782290765	0.21412707989135213	0.6429749152111343	0.18965967355443608	0.2567311038184169	0.6718588175171684	-0.010715261825533335	0.38226133790451305	0.017067555905055144	-0.05271442106682931	0.3693262569748174	0.3026114319409822	0.0707161632627478	0.2642849651377275	0.5237858905194606	0.15477537689325915	0.18148830107660538	0.5778384577569643	0.15164720600541506	0.17224702883997028	0.6069316775027926	0.10713094831772717	0.23715890116968233	0.6317014535996778
168	2.8	0.2756592242273134	0.4570067587019344	0.5178195952896417	0.29001961947958566	0.6095202898685202	0.9337699415947776	0.2920020125863106	0.6841219127359667	1.3554579666916649	0.23401829186542705	0.5037930048551689	1.400359897045308	0.31566231366413694	0.5192837202299538	1.3940843337402504	0.25592226496096204	0.7947148852969964	1.4402544985236525	0.0429686830296878	0.46772100037369274	0.511028727076605	0.05047974318418073	0.6009970654205048	0.9176224240245502	0.07013096153486087	0.6653053353246143	1.327261716416963	0.07289136271614419	0.4956263309695373	1.3783976134937799	0.016279301717537775	0.5357816810046115	1.3805795459944075	0.09722558083435535	0.7598748816170662	1.4015171990766657	0.1521793125893463	0.34928421282032174	-0.07278145812250468	0.14799647913992744	0.29475647528624593	-0.31762184956719025	0.1433568345438665	0.2180010533543469	-0.19242693005839714	0.3355858717767649	0.3319629688597575	0.032409002551063	0.35925054656088395	0.33877328960463804	0.31693407449141753	0.22762708529677803	0.2701686596994131	0.5454366667048475	0.1466101756790123	0.22716431311644614	0.6276402610184806	0.152408421210608	0.22542409434424168	0.6344814934367181	0.1841537839389368	0.24136632498601346	0.6496880909793639	-0.010781839465896798	0.3844484354798735	0.01664726024863794	-0.050187916139733224	0.37017279326091335	0.30347076045101157	0.07381426043124775	0.26378978068891873	0.520769529039751	0.16800579002291785	0.20293004467230935	0.5776211065478156	0.16463482714893413	0.18373014525989284	0.6071087560316287	0.11903692637264077	0.24477029373978065	0.633027196688331
169	2.816666666666667	0.27463124205568196	0.4648795412237363	0.5199965723734137	0.2900835137289839	0.6092987194126348	0.9317926435496127	0.29089965780097693	0.68843687857677	1.3593340794386561	0.23426590393456315	0.50447911190712	1.4006082152503005	0.3160833230918577	0.5192821111036091	1.3937451913116619	0.2550555111365838	0.794577890795699	1.4417856448277993	0.04527201027415244	0.47434598753686125	0.516610902964999	0.04978244505429248	0.5982255410858084	0.9188090069201718	0.07010511158530612	0.6657092841805057	1.3299367771024648	0.0729752820764781	0.49465577590985466	1.379101512460523	0.01633251569944061	0.5357399975939616	1.380576278574511	0.09752551554012924	0.7608975508666814	1.4029760750792284	0.15212522275839285	0.3493815472982977	-0.07267122599689321	0.1479529042931643	0.2947793043339876	-0.3157749285311962	0.14322850283909616	0.2178770543820245	-0.19052355903595253	0.33556974828156344	0.3321101883551106	0.03242013332129022	0.3589723261198612	0.3389389301517137	0.31457321485896345	0.22144247189191485	0.2778454452205354	0.5414188056230271	0.15499637641448105	0.2523497300618621	0.6281812162437804	0.16345093271774525	0.24191728325490297	0.6326390745252374	0.18373441738690977	0.23123752919977814	0.6333431531494397	-0.010961366660862825	0.38831994770265005	0.017337688902954288	-0.04941223558837113	0.37127302618675434	0.3034393467003348	0.07522118948717475	0.26443638626844435	0.5174327320312392	0.1834448999997314	0.22729408428721	0.5772981521765558	0.17969042061436538	0.20234111575979213	0.6067323428016805	0.12390022416360447	0.24712382353924972	0.6328293780201908
170	2.833333333333333	0.2729537783343102	0.471879381519759	0.5223461433900516	0.2908419104784802	0.6090202464441176	0.9272373200362283	0.2895056735626716	0.6941936045444441	1.3630583238158744	0.23483154797758823	0.5031309552414163	1.3997828022974772	0.3162623638876443	0.5186814271046917	1.3936894820499535	0.2547958354264199	0.7945366675678094	1.4418090069675924	0.04764294921521329	0.4818196769680625	0.523471308382583	0.04948242732085323	0.5977191666836953	0.9225410738497896	0.07018170527918766	0.6658896073650791	1.3334866679994861	0.07288683812648192	0.4908450348253009	1.3788673039967143	0.016417397484667053	0.5355991705390732	1.3804985908980933	0.09758358957277477	0.7607451149708655	1.4046869301534837	0.1520152049425455	0.3494437597415356	-0.07253547167799343	0.14795065716351455	0.294764314191111	-0.31386145913357966	0.14308088716547995	0.21789105230195527	-0.1894517274850826	0.33556145165905804	0.33224040435264496	0.032458893180438216	0.3584601450195345	0.34039194807423273	0.31215229647077364	0.2198283256671469	0.28458480161049626	0.537851913224181	0.1689256741224462	0.27003877502609563	0.6277060371712097	0.17759815562399894	0.2584664988429281	0.6331397843199511	0.1860373500116717	0.23396247947748433	0.6255942373360583	-0.011195531625692975	0.3927551340132516	0.018664292281407733	-0.0497715274751185	0.37278941889805106	0.3028090801803504	0.07694787535435306	0.26594870853291835	0.5140540219316801	0.19575142240521273	0.24559295342488427	0.574820180894257	0.1920294353721104	0.2231637789577416	0.6047698698024238	0.12357059955455396	0.24811631556467623	0.6318016587434787
171	2.85	0.27134139002166213	0.47742522279686217	0.5244913972111074	0.2917755322198445	0.6085091683352111	0.9211793025524557	0.2885004097799916	0.6985792290165252	1.3651148064050171	0.23500885921282474	0.49909132591035893	1.3976827719853464	0.3162551089843127	0.5181564580578503	1.3937879080548572	0.25485410931158103	0.7945286918719101	1.4411271165734427	0.04967632016163712	0.4907818187227748	0.5302040237809904	0.0495116568703744	0.5984478235703209	0.9266642126391619	0.07028125048722535	0.6653858714522685	1.3360589540526024	0.07276204881442618	0.4854540283745409	1.3770515084649664	0.016496457552647774	0.5354390742249845	1.3806050783529555	0.09755442295504528	0.7603879279280787	1.4059230614999163	0.1519985727402173	0.3494990805207897	-0.0724153504375717	0.1479621057726192	0.2947374091774682	-0.3131802212675806	0.1430895680254946	0.21807471014952878	-0.18917821021445083	0.3355644179999929	0.33236368947364536	0.032511894338131224	0.35766737024844214	0.34393833389138984	0.3104712776129015	0.22020165690188773	0.28722446918605615	0.5329705211716628	0.1818597214519459	0.2757507585823983	0.6250807091743505	0.1891888124685155	0.2684715071567639	0.6325097196019802	0.1891667258304231	0.2463012361984886	0.6240667018249085	-0.011361108210380227	0.3959402528746381	0.019782184917557025	-0.050096845928052955	0.3743509898676075	0.3020012960959484	0.07911619780484708	0.26838349789142146	0.5110981669813768	0.20238285130884262	0.25417419403770475	0.5707799810173633	0.19857600590079122	0.2398480707794146	0.6010888120501713	0.12134164913568013	0.25019230135199044	0.6298622206369171
